<?xml version="1.0" encoding="UTF-8"?>
<svg id="Layer_2" data-name="Layer 2" xmlns="http://www.w3.org/2000/svg" viewBox="0 0 325.62 579.27">
  <defs>
    <style>
      .cls-1 {
        fill: #fff;
      }

      .cls-2 {
        fill-rule: evenodd;
      }
    </style>
  </defs>
  <g id="Layer_1-2" data-name="Layer 1">
    <ellipse cx="115.67" cy="335.94" rx="80.29" ry="133.33"/>
    <ellipse cx="146.51" cy="340.26" rx="35.47" ry="159.45" transform="translate(-223.2 316.63) rotate(-63.05)"/>
    <path class="cls-2" d="M147,579.27c-17.3,0-31.33-43.28-31.33-96.67s14.03-96.67,31.33-96.67,31.33,43.28,31.33,96.67-14.03,96.67-31.33,96.67"/>
    <path class="cls-2" d="M67.83,579.27c-17.3,0-31.33-43.28-31.33-96.67s14.03-96.67,31.33-96.67,31.33,43.28,31.33,96.67-14.03,96.67-31.33,96.67"/>
    <ellipse cx="62" cy="270.6" rx="62" ry="38.67"/>
    <ellipse cx="252.51" cy="309.27" rx="31.33" ry="98.51" transform="translate(-144.73 269.14) rotate(-45)"/>
    <ellipse cx="175.54" cy="270.6" rx="62" ry="38.67"/>
    <g>
      <g>
        <path d="M121.07,187.5c-57.8,0-104.83-41.94-104.83-93.5S63.26.5,121.07.5s104.83,41.94,104.83,93.5-47.03,93.5-104.83,93.5Z"/>
        <path d="M121.07,1c57.53,0,104.33,41.72,104.33,93s-46.8,93-104.33,93S16.73,145.28,16.73,94,63.54,1,121.07,1M121.07,0C62.89,0,15.73,42.09,15.73,94s47.16,94,105.33,94,105.33-42.09,105.33-94S179.24,0,121.07,0h0Z"/>
      </g>
      <g>
        <path class="cls-1" d="M84.48,79c-10.61,0-19.25-8.64-19.25-19.25s8.64-19.25,19.25-19.25,19.25,8.64,19.25,19.25-8.64,19.25-19.25,19.25Z"/>
        <path d="M84.48,41c10.34,0,18.75,8.41,18.75,18.75s-8.41,18.75-18.75,18.75-18.75-8.41-18.75-18.75,8.41-18.75,18.75-18.75M84.48,40c-10.91,0-19.75,8.84-19.75,19.75s8.84,19.75,19.75,19.75,19.75-8.84,19.75-19.75-8.84-19.75-19.75-19.75h0Z"/>
      </g>
      <ellipse class="cls-1" cx="121.07" cy="123" rx="59.88" ry="11.25"/>
      <g>
        <path d="M84.48,95c-9.14,0-16.58-7.44-16.58-16.58s7.44-16.58,16.58-16.58,16.58,7.44,16.58,16.58-7.44,16.58-16.58,16.58Z"/>
        <path d="M84.48,62.33c8.87,0,16.08,7.21,16.08,16.08s-7.21,16.08-16.08,16.08-16.08-7.21-16.08-16.08,7.21-16.08,16.08-16.08M84.48,61.33c-9.43,0-17.08,7.65-17.08,17.08s7.65,17.08,17.08,17.08,17.08-7.65,17.08-17.08-7.65-17.08-17.08-17.08h0Z"/>
      </g>
      <g>
        <path class="cls-1" d="M161.19,79c-10.61,0-19.25-8.64-19.25-19.25s8.64-19.25,19.25-19.25,19.25,8.64,19.25,19.25-8.64,19.25-19.25,19.25Z"/>
        <path d="M161.19,41c10.34,0,18.75,8.41,18.75,18.75s-8.41,18.75-18.75,18.75-18.75-8.41-18.75-18.75,8.41-18.75,18.75-18.75M161.19,40c-10.91,0-19.75,8.84-19.75,19.75s8.84,19.75,19.75,19.75,19.75-8.84,19.75-19.75-8.84-19.75-19.75-19.75h0Z"/>
      </g>
      <g>
        <path d="M161.19,95c-9.14,0-16.58-7.44-16.58-16.58s7.44-16.58,16.58-16.58,16.58,7.44,16.58,16.58-7.44,16.58-16.58,16.58Z"/>
        <path d="M161.19,62.33c8.87,0,16.08,7.21,16.08,16.08s-7.21,16.08-16.08,16.08-16.08-7.21-16.08-16.08,7.21-16.08,16.08-16.08M161.19,61.33c-9.43,0-17.08,7.65-17.08,17.08s7.65,17.08,17.08,17.08,17.08-7.65,17.08-17.08-7.65-17.08-17.08-17.08h0Z"/>
      </g>
    </g>
  </g>
</svg>