<?xml version="1.0" encoding="UTF-8"?>
<svg id="Layer_2" data-name="Layer 2" xmlns="http://www.w3.org/2000/svg" viewBox="0 0 267.33 580.67">
  <defs>
    <style>
      .cls-1 {
        fill: #fff;
      }
    </style>
  </defs>
  <g id="Layer_1-2" data-name="Layer 1">
    <g>
      <g>
        <path d="M130.67,187.5c-57.81,0-104.83-41.94-104.83-93.5S72.86.5,130.67.5s104.83,41.94,104.83,93.5-47.03,93.5-104.83,93.5Z"/>
        <path d="M130.67,1c57.53,0,104.33,41.72,104.33,93s-46.8,93-104.33,93S26.33,145.28,26.33,94,73.14,1,130.67,1M130.67,0C72.49,0,25.33,42.09,25.33,94s47.16,94,105.33,94,105.33-42.09,105.33-94S188.84,0,130.67,0h0Z"/>
      </g>
      <g>
        <path class="cls-1" d="M94.08,79c-10.61,0-19.25-8.64-19.25-19.25s8.64-19.25,19.25-19.25,19.25,8.64,19.25,19.25-8.64,19.25-19.25,19.25Z"/>
        <path d="M94.08,41c10.34,0,18.75,8.41,18.75,18.75s-8.41,18.75-18.75,18.75-18.75-8.41-18.75-18.75,8.41-18.75,18.75-18.75M94.08,40c-10.91,0-19.75,8.84-19.75,19.75s8.84,19.75,19.75,19.75,19.75-8.84,19.75-19.75-8.84-19.75-19.75-19.75h0Z"/>
      </g>
      <ellipse class="cls-1" cx="130.67" cy="123" rx="59.88" ry="11.25"/>
      <g>
        <path d="M94.08,95c-9.14,0-16.58-7.44-16.58-16.58s7.44-16.58,16.58-16.58,16.58,7.44,16.58,16.58-7.44,16.58-16.58,16.58Z"/>
        <path d="M94.08,62.33c8.87,0,16.08,7.21,16.08,16.08s-7.21,16.08-16.08,16.08-16.08-7.21-16.08-16.08,7.21-16.08,16.08-16.08M94.08,61.33c-9.43,0-17.08,7.65-17.08,17.08s7.65,17.08,17.08,17.08,17.08-7.65,17.08-17.08-7.65-17.08-17.08-17.08h0Z"/>
      </g>
      <g>
        <path class="cls-1" d="M170.79,79c-10.61,0-19.25-8.64-19.25-19.25s8.64-19.25,19.25-19.25,19.25,8.64,19.25,19.25-8.64,19.25-19.25,19.25Z"/>
        <path d="M170.79,41c10.34,0,18.75,8.41,18.75,18.75s-8.41,18.75-18.75,18.75-18.75-8.41-18.75-18.75,8.41-18.75,18.75-18.75M170.79,40c-10.91,0-19.75,8.84-19.75,19.75s8.84,19.75,19.75,19.75,19.75-8.84,19.75-19.75-8.84-19.75-19.75-19.75h0Z"/>
      </g>
      <g>
        <path d="M170.79,95c-9.14,0-16.58-7.44-16.58-16.58s7.44-16.58,16.58-16.58,16.58,7.44,16.58,16.58-7.44,16.58-16.58,16.58Z"/>
        <path d="M170.79,62.33c8.87,0,16.08,7.21,16.08,16.08s-7.21,16.08-16.08,16.08-16.08-7.21-16.08-16.08,7.21-16.08,16.08-16.08M170.79,61.33c-9.43,0-17.08,7.65-17.08,17.08s7.65,17.08,17.08,17.08,17.08-7.65,17.08-17.08-7.65-17.08-17.08-17.08h0Z"/>
      </g>
    </g>
    <ellipse cx="130.67" cy="337.33" rx="80.29" ry="133.33"/>
    <ellipse cx="31.33" cy="326.67" rx="31.33" ry="77.33"/>
    <ellipse cx="162" cy="484" rx="31.33" ry="96.67"/>
    <ellipse cx="82.83" cy="484" rx="31.33" ry="96.67"/>
    <ellipse cx="77" cy="272" rx="62" ry="38.67"/>
    <ellipse cx="236" cy="326.67" rx="31.33" ry="77.33"/>
    <ellipse cx="190.54" cy="272" rx="62" ry="38.67"/>
  </g>
</svg>