<?xml version="1.0" encoding="UTF-8"?>
<svg id="Layer_2" data-name="Layer 2" xmlns="http://www.w3.org/2000/svg" viewBox="0 0 948.63 804.11">
  <defs>
    <style>
      .cls-1 {
        fill: #634721;
      }

      .cls-2 {
        fill: #fff;
      }

      .cls-3 {
        fill: #c1272d;
      }

      .cls-4 {
        fill: #ff0;
      }
    </style>
  </defs>
  <g id="Layer_1-2" data-name="Layer 1">
    <g>
      <rect class="cls-4" x="17.67" y="256.24" width="913.3" height="547.37"/>
      <path d="M930.46,256.74v546.37H18.17V256.74h912.3M931.46,255.74H17.17v548.37h914.3V255.74h0Z"/>
    </g>
    <path class="cls-3" d="M0,255.73C0,257.58,485.54,0,485.54,0l463.09,255.74H0Z"/>
    <g>
      <rect class="cls-2" x="68.53" y="348.73" width="226.32" height="138.96"/>
      <path d="M294.35,349.23v137.96H69.03v-137.96h225.32M295.35,348.23H68.03v139.96h227.32v-139.96h0Z"/>
    </g>
    <g>
      <rect class="cls-1" x="415.05" y="597.22" width="118.53" height="206.39"/>
      <path d="M533.08,597.72v205.39h-117.53v-205.39h117.53M534.08,596.72h-119.53v207.39h119.53v-207.39h0Z"/>
    </g>
    <g>
      <rect class="cls-2" x="638.86" y="599.77" width="177.02" height="126.23"/>
      <path d="M815.38,600.27v125.23h-176.02v-125.23h176.02M816.38,599.27h-178.02v127.23h178.02v-127.23h0Z"/>
    </g>
    <g>
      <rect class="cls-2" x="319.68" y="348.73" width="309.27" height="138.96"/>
      <path d="M628.45,349.23v137.96h-308.27v-137.96h308.27M629.45,348.23h-310.27v139.96h310.27v-139.96h0Z"/>
    </g>
    <g>
      <rect class="cls-2" x="666.98" y="348.73" width="226.32" height="138.96"/>
      <path d="M892.8,349.23v137.96h-225.32v-137.96h225.32M893.8,348.23h-227.32v139.96h227.32v-139.96h0Z"/>
    </g>
    <g>
      <rect class="cls-2" x="117.83" y="599.77" width="177.02" height="126.23"/>
      <path d="M294.35,600.27v125.23H118.33v-125.23h176.02M295.35,599.27H117.33v127.23h178.02v-127.23h0Z"/>
    </g>
  </g>
</svg>