<?xml version="1.0" encoding="UTF-8"?>
<svg id="Layer_2" data-name="Layer 2" xmlns="http://www.w3.org/2000/svg" viewBox="0 0 594.59 513.93">
  <defs>
    <style>
      .cls-1 {
        fill: #fff;
      }
    </style>
  </defs>
  <g id="Layer_1-2" data-name="Layer 1">
    <g>
      <path d="M594.59,261.88c0-25.32-21.9-45.91-48.82-45.91H81.92V66.73c0-17.18,14.86-31.16,33.12-31.16h8.67c8.97,0,17.44,3.43,23.59,9.29l-1.47,1.38c-24.69,23.22-24.69,61,0,84.23l8.37,7.88c3.69,3.47,8.53,5.21,13.37,5.21s9.68-1.74,13.37-5.21l82.69-77.78c7.38-6.95,7.38-18.21,0-25.16l-8.37-7.88c-11.96-11.25-27.86-17.44-44.77-17.44-12.93,0-25.26,3.63-35.69,10.36C161.59,7.57,143.22,0,123.72,0h-8.67C75.93,0,44.1,29.93,44.1,66.73v149.46c-24.71,2.24-44.1,21.87-44.1,45.69,0,19.48,12.98,36.12,31.22,42.78v58.63c0,51.71,39.13,94.98,90.99,105.01l-16.22,15.26c-7.38,6.95-7.38,18.21,0,25.15,3.69,3.47,8.53,5.21,13.37,5.21s9.68-1.74,13.37-5.21l40.66-38.23h247.79l40.67,38.23c3.69,3.47,8.53,5.21,13.37,5.21s9.68-1.74,13.37-5.21c7.38-6.95,7.38-18.21,0-25.15l-16.22-15.26c51.87-10.03,91-53.3,91-105.01v-58.63c18.23-6.66,31.22-23.3,31.22-42.78ZM210.49,45.67c4.39,0,8.6,1.03,12.33,2.98l-54.54,51.3c-5.35-9.12-3.92-20.83,4.29-28.55l19.89-18.71c4.82-4.53,11.22-7.02,18.03-7.02ZM48.82,251.55h496.95c6.06,0,10.99,4.64,10.99,10.34s-4.93,10.34-10.99,10.34H48.82c-6.06,0-10.99-4.64-10.99-10.34s4.93-10.34,10.99-10.34ZM525.54,363.29c0,39.49-34.16,71.63-76.15,71.63H145.2c-41.99,0-76.15-32.13-76.15-71.63v-54.98h456.5v54.98Z"/>
      <path d="M239.51,179.7c1.79,1.68,4.13,2.53,6.48,2.53s4.69-.84,6.48-2.53c3.58-3.37,3.58-8.82,0-12.19l-9.24-8.69c-3.58-3.37-9.38-3.37-12.96,0-3.58,3.37-3.58,8.82,0,12.19l9.24,8.69Z"/>
      <path d="M267.21,171.01l9.24,8.69c1.79,1.68,4.13,2.53,6.48,2.53s4.69-.84,6.48-2.53c3.58-3.37,3.58-8.83,0-12.19l-9.24-8.69c-3.58-3.37-9.38-3.36-12.96,0-3.58,3.37-3.58,8.83,0,12.19Z"/>
      <path d="M234,132.76l-9.24-8.69c-3.58-3.37-9.38-3.37-12.96,0-3.58,3.37-3.58,8.82,0,12.19l9.24,8.69c1.79,1.68,4.13,2.53,6.48,2.53s4.69-.84,6.48-2.53c3.58-3.36,3.58-8.82,0-12.19Z"/>
      <path d="M261.71,124.07c-3.58-3.37-9.38-3.37-12.96,0-3.58,3.37-3.58,8.82,0,12.19l9.24,8.69c1.79,1.68,4.13,2.53,6.48,2.53s4.69-.84,6.48-2.53c3.58-3.37,3.58-8.82,0-12.19l-9.24-8.69Z"/>
      <path d="M248.19,88.8c-3.58,3.37-3.58,8.83,0,12.19l9.24,8.69c1.79,1.68,4.13,2.53,6.48,2.53s4.69-.84,6.48-2.53c3.58-3.37,3.58-8.83,0-12.19l-9.24-8.69c-3.58-3.37-9.38-3.37-12.96,0Z"/>
      <path d="M293.14,134.56c1.79,1.68,4.13,2.53,6.48,2.53s4.69-.84,6.48-2.53c3.58-3.37,3.58-8.83,0-12.19l-9.24-8.69c-3.58-3.37-9.38-3.36-12.96,0-3.58,3.37-3.58,8.83,0,12.19l9.24,8.69Z"/>
    </g>
    <ellipse cx="470.5" cy="156.29" rx="47.49" ry="71.58"/>
    <ellipse class="cls-1" cx="443.69" cy="128.07" rx="11.49" ry="8.3"/>
  </g>
</svg>