<?xml version="1.0" encoding="UTF-8"?>
<svg id="Layer_2" data-name="Layer 2" xmlns="http://www.w3.org/2000/svg" viewBox="0 0 594.59 513.92">
  <defs>
    <style>
      .cls-1 {
        fill: #6b7300;
      }

      .cls-2 {
        fill: #fff;
      }

      .cls-3 {
        fill: #000f17;
      }
    </style>
  </defs>
  <g id="Layer_2-2" data-name="Layer 2">
    <g>
      <path class="cls-2" d="M204,390c-6.43,0-6.45,10,0,10s6.45-10,0-10Z"/>
      <path class="cls-2" d="M199.64,50.73c-.86-3.21-5.23-5.63-8.49-2.64-7.95,7.29-14.34,16-18.84,25.8-2.04,4.43,2.18,9.35,6.84,6.84,9.94-5.36,18.1-13.13,24.06-22.71,2.15-3.45-.48-6.71-3.57-7.3Z"/>
      <path class="cls-1" d="M198.17,55.02c-.51.33-1.01.66-1.52,1,.93-4.3-4.65-8.69-8.34-4.71-5.03,5.44-10.25,10.76-15.12,16.34-1.58,1.81-2.92,3.91-3.43,6.06-3.31,2.18-6.61,4.35-9.92,6.53-5.5,3.62-.76,11.14,5.05,8.63,6.15-2.65,11.74-6.12,16.79-10.26,7.18-4.98,14.36-9.97,21.54-14.95,5.23-3.63.38-12.21-5.05-8.63Z"/>
      <path class="cls-3" d="M226.63,39.52c-1.44-2.48-3.44-4.75-6.04-6.61-1.32-.95-3.72-.94-5.05,0-11.24,7.97-22.04,16.53-32.34,25.67-4.87,2.82-9.98,5.23-15.29,7.16-5.37,1.96-4.37,9.33,1.33,9.82.02,0,.04,0,.06,0-1.72,2.7-3.58,5.31-5.66,7.79-.68.82-1.07,1.68-1.23,2.53-1.32,1.75-2.63,3.51-3.95,5.26-1.89,2.52-.02,6.39,2.77,7.32-1.5,4.13,3.25,8.06,7.27,5.93.72-.38,1.42-.79,2.11-1.2,1.8,1.21,4.32,1.38,6.28-.46,6.04-5.67,9.65-12.67,11.2-20.61,6.84-4.83,13.69-9.67,20.53-14.5.35-.07.7-.14,1.04-.24,1.18,1.1,2.87,1.68,4.67,1.23,10.44-2.59,15.61-11.54,14.95-20.39.07-.09.13-.18.2-.27,2.8-3.61.5-7.9-2.87-8.43ZM217.73,43.61c.22.28.42.56.6.85-.18.16-.37.32-.56.49-.21-.31-.44-.59-.71-.86.22-.16.45-.32.67-.48Z"/>
      <path class="cls-2" d="M574.7,257.1c-6.23-.61-12.43-1.39-18.61-2.33-.34-.99-1.06-1.85-2.26-2.39-17.16-7.79-35.59-11.58-54.44-10.8-5.45.23-6.66,7.52-1.86,9.6-3.91-.12-7.81-.25-11.71-.4-11.63-.95-23.28-1.56-34.96-1.81-1.7-.04-2.95.61-3.75,1.59-45.35-1.21-90.71-1.53-136.08-1.73-10.64-8.79-24.73-8.58-37.88-6.91-17.62,2.24-35.2,4.61-52.87,6.44-3.91-.03-7.82-.07-11.72-.1-5.35-.25-10.71-.37-16.04-.3-.77.01-1.57.04-2.36.08-23.55-.3-47.1-.75-70.64-1.46-14.26-.43-28.52-.96-42.77-1.6-8.45-.38-16.93-.68-25.01,1.21-6.54.22-13.08.79-19.61,1.71-4.93.69-4.61,8.68,0,9.64.23.05.46.08.69.13-.16.42-.32.83-.47,1.25-.37.99-.3,2,.06,2.92-.29.69-.57,1.4-.8,2.15-.67,2.1.17,3.94,1.61,5.07.03,2.18,1.37,4.38,3.65,4.84,1.66.34,3.3.49,4.91.45.38.25.8.46,1.24.6,1.68.54,3.37.94,5.07,1.2,6.9,10.16,15.88,18.3,26.15,24.91-4.4,3.64-8.8,7.27-13.2,10.91-3.27,2.7-.65,8.86,3.54,8.54.38-.03.76-.07,1.14-.1-4.96,4.14-8.09,10.06-3.52,15.89-.28.3-.57.6-.85.89-.7.73-1.09,1.57-1.25,2.44-5.52,3.42-9.39,8.33-4.67,14.33,1.57,1.99,3.87,3.18,6.34,4-.14.15-.27.3-.41.45-6.3,4.94-11.04,11.6-9.95,19.85,1.48,11.19,11.59,16.39,21.75,17.12-.62.56-1.23,1.13-1.8,1.72-2.85,2.95-1.19,6.95,2.21,8.36,2.38.99,4.86,1.62,7.37,1.95-.29,3.85,1.37,7.73,3.75,11.09.36.51.75,1,1.15,1.48,0,.34,0,.69.04,1.05.59,5.37,5.41,7.5,10.2,7.73-.48.73-.96,1.47-1.39,2.25-1.72,3.06.4,7.87,4.32,7.52,6.33-.56,13.22-1.76,19.1-4.43,20.75.61,41.51,1.22,62.26,1.79,1.56,1.32,3.76,1.68,5.72.15,5.98.16,11.97.32,17.95.47,0,2.75.01,5.5.08,8.26.06,2.47,2.25,5.31,5,5,7.57-.85,11.47-6.46,14.29-12.77,50.14,1.23,100.29,2.13,150.45,2.25,22.17.05,44.35.05,66.51-.35,19.53-.35,38.23-2.98,54.8-14.06,7.42-4.97,14.4-10.91,20.48-17.44,6.27-6.73,8.77-13.78,9.67-22.83,1.08-10.85,2.04-21.72,3.06-32.58,0-.06.01-.12.02-.18.46-.12.93-.24,1.39-.36,4.52-1.24,5-8.69,0-9.64-.15-.03-.3-.05-.45-.08.18-1.87.35-3.74.53-5.61.45-4.83,1.93-10.64,1.02-15.44-.01-.08-.04-.15-.05-.22,1.98-.19,3.96-.38,5.93-.58,6.29-.64,6.49-10.47,0-10-2.26.16-4.52.26-6.77.32-.24-1.6-1.35-2.99-3.58-3.4-46.46-8.57-93.32-.9-140.08-1.4-.66-.33-1.44-.52-2.36-.51-3.49.05-6.98.1-10.47.15-3.44-.16-6.88-.38-10.32-.66-25.46-2.11-51.63-11.77-76.93-4.58-5.5-.15-11-.14-16.51.1-1.46.06-2.65.78-3.5,1.8-14.09-2.19-28.34-3.15-42.6-2.85-.59-.8-1.46-1.44-2.68-1.71-23.51-5.33-48-2.52-71.9-.07l-19.23.03c-1.8,0-3.15.9-3.97,2.14-3.12.28-6.24.56-9.37.84-5.73.51-11.78.63-17.26,2.55-13.02-5.45-25.26-12.68-34.87-22.43,3.08.17,6.16.15,9.23-.05.82.74,1.9,1.24,3.2,1.28,7.21.24,14.13-.98,20.59-3.5,9.76.76,19.52,1.35,29.3,1.8,3.83.77,7.68,1.48,11.53,2.15,2.02.35,3.68-.36,4.77-1.53,13.58.41,27.16.58,40.74.53,17.53-.06,35.06-.45,52.58-1.06,7.36,2.03,15.26,1.72,22.5-.89.44-.02.88-.04,1.31-.06,13.05,1.41,26.22,1.65,39.36.66,2.02-.15,3.65-1.32,4.44-2.89,5.91-.33,11.82-.67,17.73-1.01,15.34,2.53,30.83,3.04,46.32,1.58,8.37,1.06,16.86,1.25,25.32.56,2.86-.23,4.65-2.52,4.87-4.85,5.79.04,11.59.02,17.38-.07,3.08.85,6.19,1.56,9.33,2.12.78.69,1.85,1.12,3.2,1.11,1.45-.01,2.9-.02,4.35-.04,7.73.81,15.54.76,23.33-.19.29-.03.54-.11.81-.17.8-.01,1.61-.02,2.41-.03-.67,2.55.27,5.5,3.37,5.97,28.3,4.35,56.75,7.65,85.3,9.86,5.54.43,6.93-9.04,1.33-9.82-9.65-1.35-19.32-2.71-28.94-4.29.04-.15.08-.31.1-.46,16.17,1.35,32.37,2.25,48.6,2.68,5.58.15,6.87-8.54,1.33-9.82-4.85-1.12-9.71-2.16-14.59-3.13.05-.13.08-.26.12-.39,6.4.14,12.79.42,19.18.84,6.48.43,6.31-9.38,0-10ZM426.48,371.38c-.85-.1-1.7-.19-2.55-.27.97-.16,1.93-.33,2.9-.48-.12.25-.24.49-.36.74ZM410.15,345.95c.05.35.12.69.23,1.02-1.16.19-2.33.37-3.49.56,1.13-.45,2.22-.98,3.26-1.58ZM310.12,407.12c.05.49.09.99.13,1.48-.19-.11-.39-.2-.61-.28.17-.4.33-.79.48-1.2ZM501.09,401.16c.24-.06.48-.14.71-.24-.79,1.16-1.69,2.23-2.67,3.23.69-.98,1.33-1.98,1.96-3ZM386.16,315.98c-.13.08-.25.16-.37.25-.04,0-.08,0-.12,0-1.53-.08-3.06-.15-4.59-.22,1.69,0,3.39,0,5.08-.02ZM134.23,312.7c.04.22.1.43.16.64-.94-.19-1.87-.38-2.78-.56-.23-.05-.46-.08-.68-.12-.39-.09-.79-.18-1.18-.27-1.26-.3-2.53-.62-3.81-.95,2.76.45,5.52.87,8.29,1.26ZM121.98,309.21c.36.68.93,1.24,1.69,1.63-1.62-.43-3.25-.88-4.88-1.36,1.06-.1,2.12-.19,3.19-.27ZM106.45,375.49c.79-.18,1.58-.37,2.37-.56-1.1.79-2.19,1.59-3.29,2.38.33-.59.64-1.2.92-1.82ZM92.28,410.57c.21.09.42.17.63.25-.43.22-.86.45-1.28.7-.05-.11-.09-.21-.14-.32.27-.18.53-.39.78-.64Z"/>
      <g>
        <path d="M594.59,261.88c0-25.32-21.9-45.91-48.82-45.91H81.92V66.73c0-17.18,14.86-31.16,33.12-31.16h8.67c8.97,0,17.44,3.43,23.59,9.29l-1.47,1.38c-24.69,23.22-24.69,61,0,84.23l8.37,7.88c3.69,3.47,8.53,5.21,13.37,5.21s9.68-1.74,13.37-5.21l82.69-77.78c7.38-6.95,7.38-18.21,0-25.16l-8.37-7.88c-11.96-11.25-27.86-17.44-44.77-17.44-12.93,0-25.26,3.63-35.69,10.36C161.59,7.57,143.22,0,123.72,0h-8.67C75.93,0,44.1,29.93,44.1,66.73v149.46c-24.71,2.24-44.1,21.87-44.1,45.69,0,19.48,12.98,36.12,31.22,42.78v58.63c0,51.71,39.13,94.98,90.99,105.01l-16.22,15.26c-7.38,6.95-7.38,18.21,0,25.15,3.69,3.47,8.53,5.21,13.37,5.21s9.68-1.74,13.37-5.21l40.66-38.23h247.79l40.67,38.23c3.69,3.47,8.53,5.21,13.37,5.21s9.68-1.74,13.37-5.21c7.38-6.95,7.38-18.21,0-25.15l-16.22-15.26c51.87-10.03,91-53.3,91-105.01v-58.63c18.23-6.66,31.22-23.3,31.22-42.78h0ZM210.49,45.67c4.39,0,8.6,1.03,12.33,2.98l-54.54,51.3c-5.35-9.12-3.92-20.83,4.29-28.55l19.89-18.71c4.82-4.53,11.22-7.02,18.03-7.02h0ZM48.82,251.55h496.95c6.06,0,10.99,4.64,10.99,10.34s-4.93,10.34-10.99,10.34H48.82c-6.06,0-10.99-4.64-10.99-10.34s4.93-10.34,10.99-10.34h0ZM525.54,363.29c0,39.49-34.16,71.63-76.15,71.63H145.2c-41.99,0-76.15-32.13-76.15-71.63v-54.98h456.5v54.98h-.01Z"/>
        <path d="M239.51,179.7c1.79,1.68,4.13,2.53,6.48,2.53s4.69-.84,6.48-2.53c3.58-3.37,3.58-8.82,0-12.19l-9.24-8.69c-3.58-3.37-9.38-3.37-12.96,0s-3.58,8.82,0,12.19l9.24,8.69h0Z"/>
        <path d="M267.21,171.01l9.24,8.69c1.79,1.68,4.13,2.53,6.48,2.53s4.69-.84,6.48-2.53c3.58-3.37,3.58-8.83,0-12.19l-9.24-8.69c-3.58-3.37-9.38-3.36-12.96,0-3.58,3.37-3.58,8.83,0,12.19h0Z"/>
        <path d="M234,132.76l-9.24-8.69c-3.58-3.37-9.38-3.37-12.96,0s-3.58,8.82,0,12.19l9.24,8.69c1.79,1.68,4.13,2.53,6.48,2.53s4.69-.84,6.48-2.53c3.58-3.36,3.58-8.82,0-12.19h0Z"/>
        <path d="M261.71,124.07c-3.58-3.37-9.38-3.37-12.96,0s-3.58,8.82,0,12.19l9.24,8.69c1.79,1.68,4.13,2.53,6.48,2.53s4.69-.84,6.48-2.53c3.58-3.37,3.58-8.82,0-12.19l-9.24-8.69h0Z"/>
        <path d="M248.19,88.8c-3.58,3.37-3.58,8.83,0,12.19l9.24,8.69c1.79,1.68,4.13,2.53,6.48,2.53s4.69-.84,6.48-2.53c3.58-3.37,3.58-8.83,0-12.19l-9.24-8.69c-3.58-3.37-9.38-3.37-12.96,0h0Z"/>
        <path d="M293.14,134.56c1.79,1.68,4.13,2.53,6.48,2.53s4.69-.84,6.48-2.53c3.58-3.37,3.58-8.83,0-12.19l-9.24-8.69c-3.58-3.37-9.38-3.36-12.96,0-3.58,3.37-3.58,8.83,0,12.19l9.24,8.69h0Z"/>
      </g>
      <ellipse cx="470.5" cy="156.29" rx="47.49" ry="71.58"/>
      <ellipse class="cls-2" cx="443.69" cy="128.07" rx="11.49" ry="8.3"/>
    </g>
  </g>
</svg>