<?xml version="1.0" encoding="UTF-8"?>
<svg id="Layer_2" data-name="Layer 2" xmlns="http://www.w3.org/2000/svg" viewBox="0 0 210.67 188">
  <defs>
    <style>
      .cls-1 {
        fill: #fff;
      }
    </style>
  </defs>
  <g id="Layer_1-2" data-name="Layer 1">
    <g>
      <g>
        <path d="M105.33,187.5C47.53,187.5.5,145.56.5,94S47.53.5,105.33.5s104.83,41.94,104.83,93.5-47.03,93.5-104.83,93.5Z"/>
        <path d="M105.33,1c57.53,0,104.33,41.72,104.33,93s-46.8,93-104.33,93S1,145.28,1,94,47.8,1,105.33,1M105.33,0C47.16,0,0,42.09,0,94s47.16,94,105.33,94,105.33-42.09,105.33-94S163.51,0,105.33,0h0Z"/>
      </g>
      <g>
        <path class="cls-1" d="M68.75,79c-10.61,0-19.25-8.64-19.25-19.25s8.64-19.25,19.25-19.25,19.25,8.64,19.25,19.25-8.64,19.25-19.25,19.25Z"/>
        <path d="M68.75,41c10.34,0,18.75,8.41,18.75,18.75s-8.41,18.75-18.75,18.75-18.75-8.41-18.75-18.75,8.41-18.75,18.75-18.75M68.75,40c-10.91,0-19.75,8.84-19.75,19.75s8.84,19.75,19.75,19.75,19.75-8.84,19.75-19.75-8.84-19.75-19.75-19.75h0Z"/>
      </g>
      <ellipse class="cls-1" cx="105.33" cy="123" rx="59.88" ry="11.25"/>
      <g>
        <path d="M68.75,95c-9.14,0-16.58-7.44-16.58-16.58s7.44-16.58,16.58-16.58,16.58,7.44,16.58,16.58-7.44,16.58-16.58,16.58Z"/>
        <path d="M68.75,62.33c8.87,0,16.08,7.21,16.08,16.08s-7.21,16.08-16.08,16.08-16.08-7.21-16.08-16.08,7.21-16.08,16.08-16.08M68.75,61.33c-9.43,0-17.08,7.65-17.08,17.08s7.65,17.08,17.08,17.08,17.08-7.65,17.08-17.08-7.65-17.08-17.08-17.08h0Z"/>
      </g>
      <g>
        <path class="cls-1" d="M145.46,79c-10.61,0-19.25-8.64-19.25-19.25s8.64-19.25,19.25-19.25,19.25,8.64,19.25,19.25-8.64,19.25-19.25,19.25Z"/>
        <path d="M145.46,41c10.34,0,18.75,8.41,18.75,18.75s-8.41,18.75-18.75,18.75-18.75-8.41-18.75-18.75,8.41-18.75,18.75-18.75M145.46,40c-10.91,0-19.75,8.84-19.75,19.75s8.84,19.75,19.75,19.75,19.75-8.84,19.75-19.75-8.84-19.75-19.75-19.75h0Z"/>
      </g>
      <g>
        <path d="M145.46,95c-9.14,0-16.58-7.44-16.58-16.58s7.44-16.58,16.58-16.58,16.58,7.44,16.58,16.58-7.44,16.58-16.58,16.58Z"/>
        <path d="M145.46,62.33c8.87,0,16.08,7.21,16.08,16.08s-7.21,16.08-16.08,16.08-16.08-7.21-16.08-16.08,7.21-16.08,16.08-16.08M145.46,61.33c-9.43,0-17.08,7.65-17.08,17.08s7.65,17.08,17.08,17.08,17.08-7.65,17.08-17.08-7.65-17.08-17.08-17.08h0Z"/>
      </g>
    </g>
  </g>
</svg>