<?xml version="1.0" encoding="UTF-8"?>
<svg id="Layer_2" data-name="Layer 2" xmlns="http://www.w3.org/2000/svg" viewBox="0 0 347.97 535.04">
  <defs>
    <style>
      .cls-1 {
        fill: #fff;
      }

      .cls-2 {
        fill-rule: evenodd;
      }
    </style>
  </defs>
  <g id="Layer_1-2" data-name="Layer 1">
    <ellipse cx="173.43" cy="291.7" rx="80.29" ry="133.33"/>
    <ellipse cx="93.14" cy="227.74" rx="35.47" ry="159.45" transform="translate(-110.54 89.69) rotate(-33.63)"/>
    <path class="cls-2" d="M204.76,535.04c-17.3,0-31.33-43.28-31.33-96.67s14.03-96.67,31.33-96.67,31.33,43.28,31.33,96.67-14.03,96.67-31.33,96.67"/>
    <path class="cls-2" d="M125.59,535.04c-17.3,0-31.33-43.28-31.33-96.67s14.03-96.67,31.33-96.67,31.33,43.28,31.33,96.67-14.03,96.67-31.33,96.67"/>
    <ellipse cx="119.76" cy="226.37" rx="62" ry="38.67"/>
    <ellipse cx="295.3" cy="166.42" rx="98.51" ry="31.33" transform="translate(13.11 354.21) rotate(-63.05)"/>
    <ellipse cx="233.3" cy="226.37" rx="62" ry="38.67"/>
    <g>
      <g>
        <path d="M173.43,187.5c-57.81,0-104.83-41.94-104.83-93.5S115.62.5,173.43.5s104.83,41.94,104.83,93.5-47.03,93.5-104.83,93.5Z"/>
        <path d="M173.43,1c57.53,0,104.33,41.72,104.33,93s-46.8,93-104.33,93-104.33-41.72-104.33-93S115.9,1,173.43,1M173.43,0c-58.17,0-105.33,42.09-105.33,94s47.16,94,105.33,94,105.33-42.09,105.33-94S231.6,0,173.43,0h0Z"/>
      </g>
      <g>
        <path class="cls-1" d="M136.84,79c-10.61,0-19.25-8.64-19.25-19.25s8.64-19.25,19.25-19.25,19.25,8.64,19.25,19.25-8.64,19.25-19.25,19.25Z"/>
        <path d="M136.84,41c10.34,0,18.75,8.41,18.75,18.75s-8.41,18.75-18.75,18.75-18.75-8.41-18.75-18.75,8.41-18.75,18.75-18.75M136.84,40c-10.91,0-19.75,8.84-19.75,19.75s8.84,19.75,19.75,19.75,19.75-8.84,19.75-19.75-8.84-19.75-19.75-19.75h0Z"/>
      </g>
      <ellipse class="cls-1" cx="173.43" cy="123" rx="59.88" ry="11.25"/>
      <g>
        <path d="M136.84,95c-9.14,0-16.58-7.44-16.58-16.58s7.44-16.58,16.58-16.58,16.58,7.44,16.58,16.58-7.44,16.58-16.58,16.58Z"/>
        <path d="M136.84,62.33c8.87,0,16.08,7.21,16.08,16.08s-7.21,16.08-16.08,16.08-16.08-7.21-16.08-16.08,7.21-16.08,16.08-16.08M136.84,61.33c-9.43,0-17.08,7.65-17.08,17.08s7.65,17.08,17.08,17.08,17.08-7.65,17.08-17.08-7.65-17.08-17.08-17.08h0Z"/>
      </g>
      <g>
        <path class="cls-1" d="M213.55,79c-10.61,0-19.25-8.64-19.25-19.25s8.64-19.25,19.25-19.25,19.25,8.64,19.25,19.25-8.64,19.25-19.25,19.25Z"/>
        <path d="M213.55,41c10.34,0,18.75,8.41,18.75,18.75s-8.41,18.75-18.75,18.75-18.75-8.41-18.75-18.75,8.41-18.75,18.75-18.75M213.55,40c-10.91,0-19.75,8.84-19.75,19.75s8.84,19.75,19.75,19.75,19.75-8.84,19.75-19.75-8.84-19.75-19.75-19.75h0Z"/>
      </g>
      <g>
        <path d="M213.55,95c-9.14,0-16.58-7.44-16.58-16.58s7.44-16.58,16.58-16.58,16.58,7.44,16.58,16.58-7.44,16.58-16.58,16.58Z"/>
        <path d="M213.55,62.33c8.87,0,16.08,7.21,16.08,16.08s-7.21,16.08-16.08,16.08-16.08-7.21-16.08-16.08,7.21-16.08,16.08-16.08M213.55,61.33c-9.43,0-17.08,7.65-17.08,17.08s7.65,17.08,17.08,17.08,17.08-7.65,17.08-17.08-7.65-17.08-17.08-17.08h0Z"/>
      </g>
    </g>
  </g>
</svg>