<?xml version="1.0" encoding="UTF-8"?>
<svg id="Layer_2" data-name="Layer 2" xmlns="http://www.w3.org/2000/svg" viewBox="0 0 1021.92 865.75">
  <defs>
    <style>
      .cls-1 {
        fill: #fff;
      }

      .cls-2 {
        fill: #89560b;
      }

      .cls-3 {
        fill: red;
      }

      .cls-4 {
        fill: #843c07;
      }
    </style>
  </defs>
  <g id="Layer_1-2" data-name="Layer 1">
    <g>
      <rect class="cls-3" x="18.99" y="275.84" width="983.93" height="589.41"/>
      <path d="M1002.42,276.34v588.41H19.49V276.34h982.93M1003.42,275.34H18.49v590.41h984.93V275.34h0Z"/>
    </g>
    <path class="cls-4" d="M0,275.33C0,277.32,523.05,0,523.05,0l498.86,275.34H0Z"/>
    <g>
      <rect class="cls-1" x="127.9" y="374.47" width="163.38" height="149.68"/>
      <path d="M290.78,374.97v148.68h-162.38v-148.68h162.38M291.78,373.97H127.4v150.68h164.38v-150.68h0Z"/>
    </g>
    <g>
      <rect class="cls-1" x="73.79" y="645.71" width="271.6" height="135.99"/>
      <path d="M344.89,646.21v134.99H74.29v-134.99h270.6M345.89,645.21H73.29v136.99h272.6v-136.99h0Z"/>
    </g>
    <g>
      <rect class="cls-2" x="447.08" y="642.97" width="127.77" height="222.29"/>
      <path d="M574.34,643.47v221.29h-126.77v-221.29h126.77M575.34,642.47h-128.77v223.29h128.77v-223.29h0Z"/>
    </g>
    <g>
      <rect class="cls-1" x="647.76" y="645.71" width="271.6" height="135.99"/>
      <path d="M918.86,646.21v134.99h-270.6v-134.99h270.6M919.86,645.21h-272.6v136.99h272.6v-136.99h0Z"/>
    </g>
    <g>
      <rect class="cls-1" x="701.87" y="374.47" width="163.38" height="149.68"/>
      <path d="M864.75,374.97v148.68h-162.38v-148.68h162.38M865.75,373.97h-164.38v150.68h164.38v-150.68h0Z"/>
    </g>
  </g>
</svg>