<?xml version="1.0" encoding="UTF-8"?>
<svg id="Layer_1" xmlns="http://www.w3.org/2000/svg" version="1.1" viewBox="0 0 299 300">
  <!-- Generator: Adobe Illustrator 29.5.0, SVG Export Plug-In . SVG Version: 2.1.0 Build 137)  -->
  <defs>
    <style>
      .st0 {
        fill: #fff;
      }

      .st1 {
        fill-rule: evenodd;
      }
    </style>
  </defs>
  <g id="Layer_1-2">
    <path class="st1" d="M47.3,53.8v-.2c.8-.9,2-1.1,2.7-.3l12.9,13.4c.8.8.8,2.2.1,3.1v.2c-.8.9-2,1.1-2.7.3l-12.9-13.4c-.8-.8-.8-2.2-.1-3.1h0ZM1.1,29.9l-4.6,45.5,10.9,1.1,4.5-44.9c4.3-15.9,12.4-19.5,22.5-16.7-5.6,9.3-6,19.3-.5,30.1-1,1.6-1.1,3.4-.4,5.4l1.8,3.1c.7,1.1,1.7,1.3,3.2.1l35.2-35.3c1-1.2.9-2.2,0-3.3-1.9-3.5-2.1-4.1-6.2-3.7-8.1-7.8-16.3-9.9-24.8-5.2C24.1-5.8,6,4.9,1.1,29.9h0ZM67,37.1v-.2c.8-.9,2-1.1,2.7-.3l12.9,13.4c.8.8.8,2.2.1,3.1v.2c-.8.9-2,1.1-2.7.3l-12.9-13.4c-.8-.8-.8-2.2-.1-3.1h0ZM76.1,28v-.2c.8-.9,2-1.1,2.7-.3l12.9,13.4c.8.8.8,2.2.1,3.1v.2c-.8.9-2,1.1-2.7.3l-12.9-13.4c-.7-.8-.8-2.2-.1-3.1h0ZM57.9,45.8v-.2c.8-.9,2-1.1,2.7-.3l12.9,13.4c.8.8.8,2.2.1,3.1v.2c-.8.9-2,1.1-2.7.3l-12.9-13.4c-.7-.8-.8-2.2-.1-3.1h0Z"/>
  </g>
  <g id="Layer_1-21" data-name="Layer_1-2">
    <g>
      <g>
        <path d="M116.1,155.6c-21.3,0-38.6-15.4-38.6-34.4s17.3-34.4,38.6-34.4,38.6,15.4,38.6,34.4-17.3,34.4-38.6,34.4Z"/>
        <path d="M116.1,87c21.2,0,38.4,15.3,38.4,34.2s-17.2,34.2-38.4,34.2-38.4-15.3-38.4-34.2,17.2-34.2,38.4-34.2M116.1,86.6c-21.4,0-38.7,15.5-38.7,34.6s17.3,34.6,38.7,34.6,38.7-15.5,38.7-34.6-17.3-34.6-38.7-34.6h0Z"/>
      </g>
      <g>
        <path class="st0" d="M102.6,115.7c-3.9,0-7.1-3.2-7.1-7.1s3.2-7.1,7.1-7.1,7.1,3.2,7.1,7.1-3.2,7.1-7.1,7.1Z"/>
        <path d="M102.6,101.7c3.8,0,6.9,3.1,6.9,6.9s-3.1,6.9-6.9,6.9-6.9-3.1-6.9-6.9,3.1-6.9,6.9-6.9M102.6,101.4c-4,0-7.3,3.3-7.3,7.3s3.3,7.3,7.3,7.3,7.3-3.3,7.3-7.3-3.3-7.3-7.3-7.3h0Z"/>
      </g>
      <ellipse class="st0" cx="116.1" cy="131.9" rx="22" ry="4.1"/>
      <g>
        <path d="M102.6,121.6c-3.4,0-6.1-2.7-6.1-6.1s2.7-6.1,6.1-6.1,6.1,2.7,6.1,6.1-2.7,6.1-6.1,6.1Z"/>
        <path d="M102.6,109.6c3.3,0,5.9,2.7,5.9,5.9s-2.7,5.9-5.9,5.9-5.9-2.7-5.9-5.9,2.7-5.9,5.9-5.9M102.6,109.2c-3.5,0-6.3,2.8-6.3,6.3s2.8,6.3,6.3,6.3,6.3-2.8,6.3-6.3-2.8-6.3-6.3-6.3h0Z"/>
      </g>
      <g>
        <path class="st0" d="M130.8,115.7c-3.9,0-7.1-3.2-7.1-7.1s3.2-7.1,7.1-7.1,7.1,3.2,7.1,7.1-3.2,7.1-7.1,7.1Z"/>
        <path d="M130.8,101.7c3.8,0,6.9,3.1,6.9,6.9s-3.1,6.9-6.9,6.9-6.9-3.1-6.9-6.9,3.1-6.9,6.9-6.9M130.8,101.4c-4,0-7.3,3.3-7.3,7.3s3.3,7.3,7.3,7.3,7.3-3.3,7.3-7.3-3.3-7.3-7.3-7.3h0Z"/>
      </g>
      <g>
        <path d="M130.8,121.6c-3.4,0-6.1-2.7-6.1-6.1s2.7-6.1,6.1-6.1,6.1,2.7,6.1,6.1-2.7,6.1-6.1,6.1Z"/>
        <path d="M130.8,109.6c3.3,0,5.9,2.7,5.9,5.9s-2.7,5.9-5.9,5.9-5.9-2.7-5.9-5.9,2.7-5.9,5.9-5.9M130.8,109.2c-3.5,0-6.3,2.8-6.3,6.3s2.8,6.3,6.3,6.3,6.3-2.8,6.3-6.3-2.8-6.3-6.3-6.3h0Z"/>
      </g>
    </g>
    <ellipse cx="116.1" cy="210.7" rx="29.5" ry="49"/>
    <ellipse cx="79.5" cy="206.8" rx="11.5" ry="28.4"/>
    <ellipse cx="127.6" cy="264.7" rx="11.5" ry="35.6"/>
    <ellipse cx="98.5" cy="264.7" rx="11.5" ry="35.6"/>
    <ellipse cx="96.3" cy="186.7" rx="22.8" ry="14.2"/>
    <ellipse cx="154.8" cy="206.8" rx="11.5" ry="28.4"/>
    <ellipse cx="138.1" cy="186.7" rx="22.8" ry="14.2"/>
  </g>
</svg>