<?xml version="1.0" encoding="UTF-8"?>
<svg id="Layer_1" xmlns="http://www.w3.org/2000/svg" version="1.1" viewBox="0 0 299 300">
  <!-- Generator: Adobe Illustrator 29.5.0, SVG Export Plug-In . SVG Version: 2.1.0 Build 137)  -->
  <defs>
    <style>
      .st0 {
        fill: #ffd97b;
      }

      .st1 {
        fill: #fff;
      }

      .st2 {
        fill-rule: evenodd;
      }

      .st3 {
        fill: #00b7ff;
      }
    </style>
  </defs>
  <g id="Layer_1-2">
    <path d="M262.9,142h-87.3c-7,0-12.7,6.1-12.7,13.5v125.8c0,3.5,2.2,6.5,5.1,7.6v3.3c0,4.4,3.4,8,7.5,8h87.3c4.2,0,7.5-3.6,7.5-8v-3.3c3-1.1,5.1-4.1,5.1-7.6v-125.8c0-7.4-5.7-13.5-12.7-13.5h0ZM175.7,147.1h87.3c4.3,0,7.9,3.8,7.9,8.4v19.3h-103v-19.3c0-4.6,3.5-8.4,7.9-8.4h0ZM262.9,295.1h-87.3c-1.5,0-2.7-1.3-2.7-2.9v-2.9h92.7v2.9c0,1.6-1.2,2.9-2.7,2.9h0ZM268.1,284.2h-97.5c-1.5,0-2.7-1.3-2.7-2.9v-101.3h103v101.3c0,1.6-1.2,2.9-2.7,2.9h0Z"/>
    <path d="M219.3,188.5c-22.6,0-40.9,19.5-40.9,43.6s18.4,43.6,40.9,43.6,40.9-19.5,40.9-43.6-18.4-43.6-40.9-43.6h0ZM219.3,270.5c-19.9,0-36.1-17.2-36.1-38.4s16.2-38.4,36.1-38.4,36.1,17.2,36.1,38.4-16.2,38.4-36.1,38.4Z"/>
    <path d="M234.7,169c4.2,0,7.5-3.6,7.5-8s-3.4-8-7.5-8-7.5,3.6-7.5,8,3.4,8,7.5,8ZM234.7,158.1c1.5,0,2.7,1.3,2.7,2.9s-1.2,2.9-2.7,2.9-2.7-1.3-2.7-2.9,1.2-2.9,2.7-2.9Z"/>
    <path d="M255.2,169c4.2,0,7.5-3.6,7.5-8s-3.4-8-7.5-8-7.5,3.6-7.5,8,3.4,8,7.5,8ZM255.2,158.1c1.5,0,2.7,1.3,2.7,2.9s-1.2,2.9-2.7,2.9-2.7-1.3-2.7-2.9,1.2-2.9,2.7-2.9Z"/>
    <path d="M180.8,169h33.4c2.7,0,5-2.4,5-5.3v-5.5c0-2.9-2.2-5.3-5-5.3h-33.4c-2.7,0-5,2.4-5,5.3v5.5c0,2.9,2.2,5.3,5,5.3ZM180.6,158.2c0,0,0-.2.2-.2h33.4c0,0,.2,0,.2.2v5.5c0,0,0,.2-.2.2h-33.4c0,0-.2,0-.2-.2,0,0,0-5.5,0-5.5Z"/>
    <path d="M219.3,199.4c-16.9,0-30.6,14.6-30.6,32.6s13.7,32.6,30.6,32.6,30.6-14.6,30.6-32.6-13.7-32.6-30.6-32.6ZM219.3,259.6c-14.2,0-25.8-12.3-25.8-27.5s11.6-27.5,25.8-27.5,25.8,12.3,25.8,27.5-11.6,27.5-25.8,27.5Z"/>
    <ellipse class="st3" cx="219.3" cy="232.1" rx="25.8" ry="27.5"/>
    <rect class="st0" x="180.8" y="158.1" width="33.5" height="5.6"/>
    <circle class="st0" cx="234.7" cy="161" r="4.6"/>
    <circle class="st0" cx="255.2" cy="161" r="4.6"/>
  </g>
  <g id="Layer_1-21" data-name="Layer_1-2">
    <ellipse cx="84.2" cy="185.3" rx="37.6" ry="62.4"/>
    <ellipse cx="98.6" cy="187.3" rx="16.6" ry="74.7" transform="translate(-113 190.3) rotate(-63)"/>
    <path class="st2" d="M98.8,299.2c-8.1,0-14.7-20.3-14.7-45.3s6.6-45.3,14.7-45.3,14.7,20.3,14.7,45.3-6.6,45.3-14.7,45.3"/>
    <path class="st2" d="M61.8,299.2c-8.1,0-14.7-20.3-14.7-45.3s6.6-45.3,14.7-45.3,14.7,20.3,14.7,45.3-6.6,45.3-14.7,45.3"/>
    <ellipse cx="59" cy="154.7" rx="29" ry="18.1"/>
    <ellipse cx="148.2" cy="172.8" rx="14.7" ry="46.1" transform="translate(-78.8 155.4) rotate(-45)"/>
    <ellipse cx="112.2" cy="154.7" rx="29" ry="18.1"/>
    <g>
      <g>
        <path d="M86.7,115.8c-27.1,0-49.1-19.6-49.1-43.8s22-43.8,49.1-43.8,49.1,19.6,49.1,43.8-22,43.8-49.1,43.8Z"/>
        <path d="M86.7,28.5c26.9,0,48.8,19.5,48.8,43.5s-21.9,43.5-48.8,43.5-48.8-19.5-48.8-43.5,21.9-43.5,48.8-43.5M86.7,28c-27.2,0-49.3,19.7-49.3,44s22.1,44,49.3,44,49.3-19.7,49.3-44-22.1-44-49.3-44h0Z"/>
      </g>
      <g>
        <path class="st1" d="M69.6,65c-5,0-9-4-9-9s4-9,9-9,9,4,9,9-4,9-9,9Z"/>
        <path d="M69.6,47.2c4.8,0,8.8,3.9,8.8,8.8s-3.9,8.8-8.8,8.8-8.8-3.9-8.8-8.8,3.9-8.8,8.8-8.8M69.6,46.7c-5.1,0-9.2,4.1-9.2,9.2s4.1,9.2,9.2,9.2,9.2-4.1,9.2-9.2-4.1-9.2-9.2-9.2h0Z"/>
      </g>
      <ellipse class="st1" cx="86.7" cy="85.6" rx="28" ry="5.3"/>
      <g>
        <path d="M69.6,72.5c-4.3,0-7.8-3.5-7.8-7.8s3.5-7.8,7.8-7.8,7.8,3.5,7.8,7.8-3.5,7.8-7.8,7.8Z"/>
        <path d="M69.6,57.2c4.2,0,7.5,3.4,7.5,7.5s-3.4,7.5-7.5,7.5-7.5-3.4-7.5-7.5,3.4-7.5,7.5-7.5M69.6,56.7c-4.4,0-8,3.6-8,8s3.6,8,8,8,8-3.6,8-8-3.6-8-8-8h0Z"/>
      </g>
      <g>
        <path class="st1" d="M105.5,65c-5,0-9-4-9-9s4-9,9-9,9,4,9,9-4,9-9,9Z"/>
        <path d="M105.5,47.2c4.8,0,8.8,3.9,8.8,8.8s-3.9,8.8-8.8,8.8-8.8-3.9-8.8-8.8,3.9-8.8,8.8-8.8M105.5,46.7c-5.1,0-9.2,4.1-9.2,9.2s4.1,9.2,9.2,9.2,9.2-4.1,9.2-9.2-4.1-9.2-9.2-9.2h0Z"/>
      </g>
      <g>
        <path d="M105.5,72.5c-4.3,0-7.8-3.5-7.8-7.8s3.5-7.8,7.8-7.8,7.8,3.5,7.8,7.8-3.5,7.8-7.8,7.8Z"/>
        <path d="M105.5,57.2c4.2,0,7.5,3.4,7.5,7.5s-3.4,7.5-7.5,7.5-7.5-3.4-7.5-7.5,3.4-7.5,7.5-7.5M105.5,56.7c-4.4,0-8,3.6-8,8s3.6,8,8,8,8-3.6,8-8-3.6-8-8-8h0Z"/>
      </g>
    </g>
  </g>
</svg>