<?xml version="1.0" encoding="UTF-8"?>
<svg id="Layer_2" data-name="Layer 2" xmlns="http://www.w3.org/2000/svg" viewBox="0 0 387.46 498.55">
  <defs>
    <style>
      .cls-1 {
        fill: #fff;
      }

      .cls-2 {
        fill-rule: evenodd;
      }
    </style>
  </defs>
  <g id="Layer_1-2" data-name="Layer 1">
    <path class="cls-2" d="M130.51,362.2c-59.83,30.25-117.41,41-128.61,24.02s28.23-55.27,88.06-85.52c59.83-30.25,117.41-41,128.61-24.02s-28.23,55.27-88.06,85.52Z"/>
    <path d="M336.69,498.55H88.15c-1.49,0-2.9-.76-3.8-2.05-.9-1.29-1.2-2.97-.8-4.53l19.2-75.02c-16.95-21.8-26.67-50.05-27.67-80.31h-8.67c-2.64,0-4.77-2.32-4.77-5.19v-3.63c0-12.31,9.2-22.32,20.51-22.32h165.33c10.27,0,18.8,8.25,20.28,18.97,2.54-1.42,4.69-3.63,6.21-6.48,1.27-2.38,1.93-5.31,1.93-8.47v-150.37h-3.74c-2.64,0-4.77-2.32-4.77-5.19v-15.05c0-8.87,6.63-16.09,14.79-16.09h31.25c-.67-1.85-1.04-3.86-1.04-5.97,0-9.02,6.74-16.35,15.03-16.35s15.03,7.33,15.03,16.35c0,2.1-.37,4.12-1.04,5.97h31.25c8.15,0,14.79,7.22,14.79,16.09v15.05c0,2.87-2.14,5.19-4.77,5.19h-3.74v135.87c0,15.49-4.48,28.93-14.09,42.31-1.49,2.08-3.22,4.41-4.93,6.72-1.42,1.92-2.83,3.82-4.08,5.54-1.27,1.75-2.6,3.51-3.97,5.32-9.49,12.56-20.23,26.79-22.85,54.38-2.18,23.11,11.73,80.73,11.87,81.31l.35,1.25c.44,1.57.17,3.28-.73,4.6-.9,1.32-2.32,2.1-3.83,2.1ZM94.43,488.17h236.06c-3.5-15.24-12.92-59.01-10.95-79.93,2.9-30.7,15.13-46.9,24.96-59.91,1.33-1.76,2.62-3.47,3.85-5.16,1.27-1.75,2.7-3.68,4.14-5.63,1.68-2.27,3.38-4.55,4.84-6.59,8.23-11.46,12.07-22.87,12.07-35.92v-135.87h-83.96v150.37c0,4.98-1.11,9.71-3.22,13.66-3.71,6.97-10.07,11.73-17.2,13.07-.56.25-1.17.38-1.8.38H84.63c1.02,28.72,10.5,55.39,26.97,75.57,0,0,.01.02.02.03.02.02.04.05.06.07.35.44,23.44,29.16,67.59,29.16,2.64,0,4.77,2.32,4.77,5.19s-2.14,5.19-4.77,5.19c-35.67,0-58.6-16.77-68.79-26.36l-16.04,62.69ZM79.77,326.26h178.6c-.7-5.85-5.31-10.38-10.88-10.38H82.15c-5.57,0-10.18,4.53-10.88,10.38h8.49ZM374.18,148.77h3.74v-9.86c0-3.15-2.35-5.71-5.25-5.71h-90.48c-2.89,0-5.25,2.56-5.25,5.71v9.86h97.24ZM327.43,110.89c-3.02,0-5.49,2.68-5.49,5.97s2.46,5.97,5.49,5.97,5.49-2.68,5.49-5.97-2.46-5.97-5.49-5.97Z"/>
    <g>
      <ellipse cx="204.22" cy="81.11" rx="61.46" ry="81.11"/>
      <ellipse class="cls-1" cx="169.52" cy="49.13" rx="14.87" ry="9.41"/>
    </g>
    <ellipse cx="208.29" cy="209.35" rx="51.27" ry="100.43"/>
    <ellipse cx="220.9" cy="239.85" rx="51.38" ry="98.42"/>
  </g>
</svg>