<?xml version="1.0" encoding="UTF-8"?>
<svg id="Layer_2" data-name="Layer 2" xmlns="http://www.w3.org/2000/svg" viewBox="0 0 959.59 817.81">
  <defs>
    <style>
      .cls-1 {
        fill: #634721;
      }

      .cls-2 {
        fill: #fff;
      }

      .cls-3 {
        fill: #009245;
      }

      .cls-4 {
        fill: #736357;
      }
    </style>
  </defs>
  <g id="Layer_1-2" data-name="Layer 1">
    <g>
      <rect class="cls-3" x="17.87" y="260.59" width="923.86" height="556.71"/>
      <path d="M941.22,261.09v555.71H18.37V261.09h922.86M942.22,260.09H17.37v557.71h924.86V260.09h0Z"/>
    </g>
    <path class="cls-4" d="M0,260.08C0,261.96,491.15,0,491.15,0l468.44,260.09H0Z"/>
    <g>
      <rect class="cls-1" x="47.09" y="607.39" width="119.91" height="209.92"/>
      <path d="M166.5,607.89v208.92H47.59v-208.92h118.91M167.5,606.89H46.59v210.92h120.91v-210.92h0Z"/>
    </g>
    <g>
      <rect class="cls-2" x="372" y="354.66" width="228.95" height="141.34"/>
      <path d="M600.44,355.16v140.34h-227.95v-140.34h227.95M601.44,354.16h-229.95v142.34h229.95v-142.34h0Z"/>
    </g>
    <g>
      <rect class="cls-2" x="222.21" y="609.97" width="285.97" height="128.4"/>
      <path d="M507.68,610.47v127.4H222.71v-127.4h284.97M508.68,609.47H221.71v129.4h286.97v-129.4h0Z"/>
    </g>
    <g>
      <rect class="cls-2" x="637.86" y="354.66" width="270.65" height="141.34"/>
      <path d="M908.01,355.16v140.34h-269.65v-140.34h269.65M909.01,354.16h-271.65v142.34h271.65v-142.34h0Z"/>
    </g>
    <g>
      <rect class="cls-2" x="601.94" y="609.97" width="285.97" height="128.4"/>
      <path d="M887.41,610.47v127.4h-284.97v-127.4h284.97M888.41,609.47h-286.97v129.4h286.97v-129.4h0Z"/>
    </g>
    <g>
      <rect class="cls-2" x="47.09" y="354.66" width="270.65" height="141.34"/>
      <path d="M317.24,355.16v140.34H47.59v-140.34h269.65M318.24,354.16H46.59v142.34h271.65v-142.34h0Z"/>
    </g>
  </g>
</svg>