<?xml version="1.0" encoding="UTF-8"?>
<svg id="Layer_2" data-name="Layer 2" xmlns="http://www.w3.org/2000/svg" viewBox="0 0 247.91 348.33">
  <defs>
    <style>
      .cls-1 {
        fill: #ffd97b;
      }

      .cls-2 {
        fill: #00b7ff;
      }
    </style>
  </defs>
  <g id="Layer_1-2" data-name="Layer 1">
    <path d="M220.01,0H27.9C12.52,0,0,13.33,0,29.72v276.86c0,7.78,4.74,14.39,11.3,16.75v7.32c0,9.75,7.45,17.68,16.6,17.68h192.11c9.15,0,16.6-7.93,16.6-17.68v-7.32c6.56-2.36,11.3-8.98,11.3-16.75V29.72c0-16.39-12.52-29.72-27.9-29.72ZM27.9,11.29h192.11c9.54,0,17.3,8.27,17.3,18.43v42.51H10.59V29.72c0-10.16,7.76-18.43,17.3-18.43ZM220.01,337.05H27.9c-3.31,0-6-2.87-6-6.39v-6.39h204.12v6.39c0,3.53-2.69,6.39-6,6.39ZM231.31,312.97H16.6c-3.31,0-6-2.87-6-6.39V83.51h226.72v223.07c0,3.53-2.69,6.39-6,6.39Z"/>
    <path d="M123.95,102.32c-49.65,0-90.05,43.03-90.05,95.92s40.4,95.92,90.05,95.92,90.05-43.03,90.05-95.92-40.4-95.92-90.05-95.92ZM123.95,282.88c-43.81,0-79.46-37.97-79.46-84.64s35.64-84.64,79.46-84.64,79.46,37.97,79.46,84.64-35.64,84.64-79.46,84.64Z"/>
    <path d="M157.85,59.43c9.15,0,16.6-7.93,16.6-17.68s-7.45-17.68-16.6-17.68-16.6,7.93-16.6,17.68,7.45,17.68,16.6,17.68ZM157.85,35.36c3.31,0,6,2.87,6,6.39s-2.69,6.39-6,6.39-6-2.87-6-6.39,2.69-6.39,6-6.39Z"/>
    <path d="M203.06,59.43c9.15,0,16.6-7.93,16.6-17.68s-7.45-17.68-16.6-17.68-16.6,7.93-16.6,17.68,7.45,17.68,16.6,17.68ZM203.06,35.36c3.31,0,6,2.87,6,6.39s-2.69,6.39-6,6.39-6-2.87-6-6.39,2.69-6.39,6-6.39Z"/>
    <path d="M39.2,59.43h73.45c6.04,0,10.95-5.23,10.95-11.66v-12.04c0-6.43-4.91-11.66-10.95-11.66H39.2c-6.04,0-10.95,5.23-10.95,11.66v12.04c0,6.43,4.91,11.66,10.95,11.66ZM38.85,35.74c0-.21.16-.38.35-.38h73.45c.19,0,.35.17.35.38v12.04c0,.21-.16.38-.35.38H39.2c-.19,0-.35-.17-.35-.38v-12.04Z"/>
    <path d="M123.95,126.39c-37.19,0-67.45,32.23-67.45,71.85s30.26,71.85,67.45,71.85,67.45-32.23,67.45-71.85-30.26-71.85-67.45-71.85ZM123.95,258.8c-31.35,0-56.86-27.17-56.86-60.56s25.51-60.56,56.86-60.56,56.86,27.17,56.86,60.56-25.51,60.56-56.86,60.56Z"/>
    <ellipse class="cls-2" cx="123.95" cy="198.24" rx="56.86" ry="60.56"/>
    <rect class="cls-1" x="39.2" y="35.36" width="73.81" height="12.41"/>
    <circle class="cls-1" cx="157.85" cy="41.75" r="10.15"/>
    <circle class="cls-1" cx="203.06" cy="41.75" r="10.15"/>
  </g>
</svg>