<?xml version="1.0" encoding="UTF-8"?>
<svg xmlns="http://www.w3.org/2000/svg" version="1.1" xmlns:xlink="http://www.w3.org/1999/xlink" viewBox="0 0 363 456.9">
  <defs>
    <style>
      .cls-1, .cls-2, .cls-3 {
        stroke-miterlimit: 10;
      }

      .cls-1, .cls-3 {
        fill: none;
        stroke: #000;
      }

      .cls-2 {
        fill: url(#linear-gradient-2);
        stroke: #231f20;
      }

      .cls-2, .cls-3 {
        stroke-width: 2px;
      }

      .cls-4 {
        fill: url(#linear-gradient);
      }
    </style>
    <linearGradient id="linear-gradient" x1="181.8" y1="404.9" x2="181.8" y2="22.5" gradientUnits="userSpaceOnUse">
      <stop offset="0" stop-color="#00b3f0"/>
      <stop offset="1" stop-color="#20419a"/>
    </linearGradient>
    <linearGradient id="linear-gradient-2" x1="181.8" y1="455.6" x2="181.8" y2="339.6" xlink:href="#linear-gradient"/>
  </defs>
  <!-- Generator: Adobe Illustrator 28.7.5, SVG Export Plug-In . SVG Version: 1.2.0 Build 176)  -->
  <g>
    <g id="Layer_2">
      <g>
        <g>
          <rect class="cls-4" x="1" y="22.5" width="361.7" height="382.4" rx="12" ry="12"/>
          <ellipse class="cls-2" cx="181.8" cy="397.6" rx="180.8" ry="58"/>
          <path class="cls-3" d="M362.7,398.6V.2H.7s.5,398.9,0,398.4"/>
        </g>
        <line class="cls-1" x1="184.1" y1="455.8" x2="184.1" y2="45.2"/>
        <line class="cls-1" x1="148.1" y1="44.2" x2="213.4" y2="44.2"/>
        <line class="cls-1" x1="171.3" y1="59.3" x2="196" y2="59.3"/>
        <line class="cls-1" x1="171.3" y1="79.1" x2="199.2" y2="79.1"/>
        <line class="cls-1" x1="169" y1="95.3" x2="200.5" y2="95.3"/>
        <line class="cls-1" x1="166.7" y1="109.3" x2="198.1" y2="109.3"/>
        <line class="cls-1" x1="150.4" y1="129.1" x2="214.9" y2="129.1"/>
        <line class="cls-1" x1="172.5" y1="145.3" x2="195.7" y2="145.3"/>
        <line class="cls-1" x1="171.3" y1="162.8" x2="195.7" y2="162.8"/>
        <line class="cls-1" x1="170.2" y1="182.5" x2="195.8" y2="182.5"/>
        <line class="cls-1" x1="169" y1="197.7" x2="193.7" y2="197.7"/>
        <line class="cls-1" x1="172.5" y1="217.4" x2="193.4" y2="217.4"/>
        <line class="cls-1" x1="152.7" y1="233.7" x2="219" y2="233.7"/>
        <line class="cls-1" x1="173.6" y1="247.7" x2="201.6" y2="247.7"/>
        <line class="cls-1" x1="172.5" y1="263.9" x2="197" y2="263.9"/>
        <line class="cls-1" x1="171.3" y1="282.5" x2="196.9" y2="282.5"/>
        <line class="cls-1" x1="172.5" y1="295.3" x2="197.1" y2="295.3"/>
        <line class="cls-1" x1="146.9" y1="323.2" x2="222.6" y2="323.2"/>
        <line class="cls-1" x1="171.3" y1="343" x2="196.9" y2="343"/>
        <line class="cls-1" x1="172" y1="356.5" x2="194.2" y2="356.5"/>
        <line class="cls-1" x1="166.7" y1="370.9" x2="199.2" y2="370.9"/>
        <line class="cls-1" x1="174.8" y1="384.9" x2="195.8" y2="384.9"/>
        <line class="cls-1" x1="144.4" y1="403.5" x2="218.7" y2="403.5"/>
      </g>
    </g>
  </g>
</svg>