<?xml version="1.0" encoding="UTF-8"?>
<svg id="Layer_2" xmlns="http://www.w3.org/2000/svg" xmlns:xlink="http://www.w3.org/1999/xlink" viewBox="0 0 364 457.4">
  <defs>
    <style>
      .cls-1, .cls-2, .cls-3 {
        stroke-miterlimit: 10;
      }

      .cls-1, .cls-3 {
        fill: none;
        stroke: #000;
      }

      .cls-2 {
        fill: url(#linear-gradient-2);
        stroke: #231f20;
      }

      .cls-2, .cls-3 {
        stroke-width: 2px;
      }

      .cls-4 {
        fill: url(#linear-gradient);
      }
    </style>
    <linearGradient id="linear-gradient" x1="182.15" y1="51.9" x2="182.15" y2="63.8" gradientTransform="translate(0 457.6) scale(1 -1)" gradientUnits="userSpaceOnUse">
      <stop offset="0" stop-color="#00b3f0"/>
      <stop offset="1" stop-color="#20419a"/>
    </linearGradient>
    <linearGradient id="linear-gradient-2" x1="182.1" y1="1.2" x2="182.1" y2="117.2" xlink:href="#linear-gradient"/>
  </defs>
  <g id="Layer_1-2" data-name="Layer_1">
    <g id="Layer_2-2" data-name="Layer_2">
      <path id="water" class="cls-4" d="M13.3,393.8h337.7c6.63,0,12,.17,12,.37v11.15c0,.21-5.37.37-12,.37H13.3c-6.63,0-12-.17-12-.37v-11.15c0-.21,5.37-.37,12-.37Z"/>
      <ellipse id="floor" class="cls-2" cx="182.1" cy="398.4" rx="180.8" ry="58"/>
      <g id="Water_Indicator">
        <line class="cls-1" x1="144.7" y1="404.3" x2="219" y2="404.3"/>
        <line class="cls-1" x1="184.4" y1="456.6" x2="184.4" y2="46"/>
        <line class="cls-1" x1="148.4" y1="45" x2="213.7" y2="45"/>
        <line class="cls-1" x1="171.6" y1="60.1" x2="196.3" y2="60.1"/>
        <line class="cls-1" x1="171.6" y1="79.9" x2="199.5" y2="79.9"/>
        <line class="cls-1" x1="169.3" y1="96.1" x2="200.8" y2="96.1"/>
        <line class="cls-1" x1="167" y1="110.1" x2="198.4" y2="110.1"/>
        <line class="cls-1" x1="150.7" y1="129.9" x2="215.2" y2="129.9"/>
        <line class="cls-1" x1="172.8" y1="146.1" x2="196" y2="146.1"/>
        <line class="cls-1" x1="171.6" y1="163.6" x2="196" y2="163.6"/>
        <line class="cls-1" x1="170.5" y1="183.3" x2="196.1" y2="183.3"/>
        <line class="cls-1" x1="169.3" y1="198.5" x2="194" y2="198.5"/>
        <line class="cls-1" x1="172.8" y1="218.2" x2="193.7" y2="218.2"/>
        <line class="cls-1" x1="153" y1="234.5" x2="219.3" y2="234.5"/>
        <line class="cls-1" x1="173.9" y1="248.5" x2="201.9" y2="248.5"/>
        <line class="cls-1" x1="172.8" y1="264.7" x2="197.3" y2="264.7"/>
        <line class="cls-1" x1="171.6" y1="283.3" x2="197.2" y2="283.3"/>
        <line class="cls-1" x1="172.8" y1="296.1" x2="197.4" y2="296.1"/>
        <line class="cls-1" x1="147.2" y1="324" x2="222.9" y2="324"/>
        <line class="cls-1" x1="171.6" y1="343.8" x2="197.2" y2="343.8"/>
        <line class="cls-1" x1="172.3" y1="357.3" x2="194.5" y2="357.3"/>
        <line class="cls-1" x1="167" y1="371.7" x2="199.5" y2="371.7"/>
        <line class="cls-1" x1="175.1" y1="385.7" x2="196.1" y2="385.7"/>
        <path class="cls-3" d="M363,399.4V1H1s.5,398.9,0,398.4"/>
      </g>
    </g>
  </g>
</svg>