<?xml version="1.0" encoding="UTF-8"?>
<svg xmlns="http://www.w3.org/2000/svg" version="1.1" viewBox="0 0 160.6 143.2">
  <defs>
    <style>
      .cls-1 {
        fill: #1f4597;
      }
    </style>
  </defs>
  <!-- Generator: Adobe Illustrator 28.7.6, SVG Export Plug-In . SVG Version: 1.2.0 Build 188)  -->
  <g>
    <g id="Layer_2">
      <g id="Layer_1-2">
        <rect class="cls-1" y="24.6" width="160.6" height="118.7"/>
      </g>
      <g id="Layer_1-2-2" data-name="Layer_1-2">
        <path class="cls-1" d="M-1.4,14.3c2.7,0,5.4-1.9,8.2-5.6,5.4-7.5,10.9-7.5,16.3,0,2.7,3.8,5.4,5.6,8.2,5.6s5.4-1.9,8.2-5.6c5.4-7.5,10.9-7.5,16.3,0,2.7,3.8,5.4,5.6,8.2,5.6s5.4-1.9,8.2-5.6c5.4-7.5,10.9-7.5,16.3,0,2.7,3.8,5.4,5.6,8.2,5.6s5.4-1.9,8.2-5.6c5.4-7.5,10.9-7.5,16.3,0,2.7,3.8,5.4,5.6,8.2,5.6s5.4-1.9,8.2-5.6c5.4-7.5,10.9-7.5,16.3,0,2.7,3.8,5.4,5.6,8.2,5.6v11.3H-1.4v-11.3Z"/>
      </g>
    </g>
  </g>
</svg>