<?xml version="1.0" encoding="UTF-8"?>
<svg id="Layer_2" data-name="Layer 2" xmlns="http://www.w3.org/2000/svg" viewBox="0 0 1280 100">
  <defs>
    <style>
      .cls-1 {
        fill: #1f4597;
      }
    </style>
  </defs>
  <g id="Layer_1-2" data-name="Layer 1">
    <path class="cls-1" d="M0,50c21.33,0,42.67-8.33,64-25,42.67-33.33,85.33-33.33,128,0,21.33,16.67,42.67,25,64,25s42.67-8.33,64-25c42.67-33.33,85.33-33.33,128,0,21.33,16.67,42.67,25,64,25s42.67-8.33,64-25c42.67-33.33,85.33-33.33,128,0,21.33,16.67,42.67,25,64,25s42.67-8.33,64-25c42.67-33.33,85.33-33.33,128,0,21.33,16.67,42.67,25,64,25s42.67-8.33,64-25c42.67-33.33,85.33-33.33,128,0,21.33,16.67,42.67,25,64,25v50H0v-50Z"/>
  </g>
</svg>